<svg width="1600" height="620" viewBox="0 0 1600 620" fill="none" xmlns="http://www.w3.org/2000/svg">
  <rect width="1600" height="620" rx="42" fill="url(#bg)"/>
  <rect x="52" y="88" width="500" height="444" rx="38" fill="url(#left)"/>
  <circle cx="300" cy="308" r="132" fill="#FFFFFF" fill-opacity="0.12"/>
  <circle cx="300" cy="308" r="94" fill="#FFFFFF" fill-opacity="0.9"/>
  <path d="M300 236C327 236 350 248 366 269C350 255 326 246 300 246C274 246 250 255 234 269C250 248 273 236 300 236Z" fill="#10A37F"/>
  <path d="M234 347C250 361 274 370 300 370C326 370 350 361 366 347C350 374 327 390 300 390C273 390 250 374 234 347Z" fill="#10A37F"/>
  <rect x="650" y="108" width="430" height="96" rx="48" fill="white" fill-opacity="0.88"/>
  <circle cx="720" cy="156" r="30" fill="#EAF7FF"/>
  <rect x="764" y="138" width="254" height="34" rx="17" fill="#0C69FF"/>
  <rect x="650" y="236" width="430" height="96" rx="48" fill="white" fill-opacity="0.88"/>
  <circle cx="720" cy="284" r="30" fill="#EEFFF7"/>
  <rect x="764" y="266" width="222" height="34" rx="17" fill="#10A37F"/>
  <rect x="650" y="364" width="430" height="96" rx="48" fill="white" fill-opacity="0.88"/>
  <circle cx="720" cy="412" r="30" fill="#FFF5E7"/>
  <rect x="764" y="394" width="260" height="34" rx="17" fill="#FF9740"/>
  <g>
    <rect x="1138" y="94" width="404" height="434" rx="36" fill="white" fill-opacity="0.42"/>
    <rect x="1188" y="142" width="128" height="108" rx="30" fill="white"/>
    <rect x="1340" y="142" width="128" height="108" rx="30" fill="white"/>
    <rect x="1188" y="274" width="128" height="108" rx="30" fill="white"/>
    <rect x="1340" y="274" width="128" height="108" rx="30" fill="white"/>
    <rect x="1264" y="406" width="128" height="74" rx="28" fill="white"/>
    <text x="1220" y="206" font-family="Arial" font-size="24" font-weight="700" fill="#10A37F">GPT</text>
    <text x="1358" y="206" font-family="Arial" font-size="24" font-weight="700" fill="#5B67FF">Canva</text>
    <text x="1210" y="338" font-family="Arial" font-size="24" font-weight="700" fill="#FF6230">Adobe</text>
    <text x="1358" y="338" font-family="Arial" font-size="24" font-weight="700" fill="#2C6CFF">Drive</text>
    <text x="1295" y="450" font-family="Arial" font-size="24" font-weight="700" fill="#8759FF">PRO</text>
  </g>
  <defs>
    <linearGradient id="bg" x1="26" y1="14" x2="1552" y2="606" gradientUnits="userSpaceOnUse">
      <stop stop-color="#F1FAFF"/>
      <stop offset="0.48" stop-color="#F7F1FF"/>
      <stop offset="1" stop-color="#FFF7ED"/>
    </linearGradient>
    <linearGradient id="left" x1="60" y1="86" x2="518" y2="512" gradientUnits="userSpaceOnUse">
      <stop stop-color="#24C4E8"/>
      <stop offset="1" stop-color="#3E8BFF"/>
    </linearGradient>
  </defs>
</svg>
