<svg width="1600" height="620" viewBox="0 0 1600 620" fill="none" xmlns="http://www.w3.org/2000/svg">
  <rect width="1600" height="620" rx="42" fill="url(#bg)"/>
  <rect x="60" y="84" width="520" height="452" rx="36" fill="url(#left)"/>
  <rect x="112" y="146" width="160" height="220" rx="28" fill="#FFFFFF" fill-opacity="0.75"/>
  <circle cx="192" cy="128" r="44" fill="#FFD886"/>
  <rect x="312" y="114" width="190" height="62" rx="24" fill="#FFFFFF" fill-opacity="0.72"/>
  <rect x="312" y="204" width="210" height="26" rx="13" fill="#FFFFFF" fill-opacity="0.72"/>
  <rect x="312" y="246" width="170" height="26" rx="13" fill="#FFFFFF" fill-opacity="0.72"/>
  <rect x="312" y="288" width="220" height="26" rx="13" fill="#FFFFFF" fill-opacity="0.72"/>
  <rect x="312" y="356" width="148" height="86" rx="24" fill="#FFF4D9"/>
  <rect x="484" y="356" width="70" height="86" rx="24" fill="#E4FBF1"/>
  <rect x="660" y="108" width="420" height="96" rx="48" fill="white" fill-opacity="0.88"/>
  <circle cx="728" cy="156" r="30" fill="#EAF7FF"/>
  <rect x="770" y="138" width="240" height="34" rx="17" fill="#2B55E7"/>
  <rect x="660" y="236" width="420" height="96" rx="48" fill="white" fill-opacity="0.88"/>
  <circle cx="728" cy="284" r="30" fill="#EFFFE7"/>
  <rect x="770" y="266" width="220" height="34" rx="17" fill="#13A170"/>
  <rect x="660" y="364" width="420" height="96" rx="48" fill="white" fill-opacity="0.88"/>
  <circle cx="728" cy="412" r="30" fill="#FFF5E8"/>
  <rect x="770" y="394" width="260" height="34" rx="17" fill="#F78F1F"/>
  <g>
    <rect x="1140" y="92" width="360" height="436" rx="34" fill="white" fill-opacity="0.45"/>
    <rect x="1186" y="136" width="116" height="116" rx="32" fill="white"/>
    <rect x="1324" y="136" width="116" height="116" rx="32" fill="white"/>
    <rect x="1186" y="274" width="116" height="116" rx="32" fill="white"/>
    <rect x="1324" y="274" width="116" height="116" rx="32" fill="white"/>
    <rect x="1255" y="410" width="116" height="70" rx="26" fill="white"/>
    <text x="1244" y="205" font-family="Arial" font-size="26" font-weight="700" fill="#3F67F4">ELSA</text>
    <text x="1341" y="204" font-family="Arial" font-size="24" font-weight="700" fill="#7BC614">Duo</text>
    <text x="1210" y="342" font-family="Arial" font-size="24" font-weight="700" fill="#2B55E7">365</text>
    <text x="1344" y="342" font-family="Arial" font-size="24" font-weight="700" fill="#FDBA1A">MEM</text>
    <text x="1289" y="454" font-family="Arial" font-size="22" font-weight="700" fill="#10A37F">PRO</text>
  </g>
  <defs>
    <linearGradient id="bg" x1="46" y1="18" x2="1540" y2="606" gradientUnits="userSpaceOnUse">
      <stop stop-color="#EEF3FF"/>
      <stop offset="0.48" stop-color="#FFF3FA"/>
      <stop offset="1" stop-color="#F0FFF8"/>
    </linearGradient>
    <linearGradient id="left" x1="80" y1="92" x2="544" y2="500" gradientUnits="userSpaceOnUse">
      <stop stop-color="#0E55E9"/>
      <stop offset="1" stop-color="#5AB8FF"/>
    </linearGradient>
  </defs>
</svg>
